<svg xmlns="http://www.w3.org/2000/svg" viewBox="0 0 1254 1254">
  <rect width="1254" height="1254" fill="none"/>
  <defs><radialGradient id="shine" cx="50%" cy="40%" r="60%"><stop stop-color="#fff7b2"/><stop offset=".55" stop-color="#ffb84d"/><stop offset="1" stop-color="#f05a84"/></radialGradient></defs>
  <circle cx="627" cy="627" r="512" fill="url(#shine)" stroke="#161616" stroke-width="24"/>
  <circle cx="627" cy="627" r="448" fill="#fffef7" stroke="#ffffff" stroke-width="20" stroke-dasharray="36 18"/>
  <path d="M408 522c78-136 360-136 438 0 28 148-76 248-219 248s-247-100-219-248z" fill="#fff0c4" stroke="#161616" stroke-width="18"/>
  <path d="M452 430l78-104 42 130M802 430l-78-104-42 130" fill="#f8c36d" stroke="#161616" stroke-width="18" stroke-linejoin="round"/>
  <circle cx="548" cy="548" r="34" fill="#161616"/><circle cx="706" cy="548" r="34" fill="#161616"/>
  <path d="M570 622c42 50 72 50 114 0" fill="none" stroke="#161616" stroke-width="16" stroke-linecap="round"/>
  <path d="M290 610c92-30 143-80 170-160M964 610c-92-30-143-80-170-160M627 226v108" stroke="#ffffff" stroke-width="28" stroke-linecap="round"/>
  <path d="M627 292l46 94 104 15-75 73 18 103-93-49-93 49 18-103-75-73 104-15z" fill="#fff36d" stroke="#161616" stroke-width="12" stroke-linejoin="round"/>
  <text x="627" y="878" text-anchor="middle" font-family="sans-serif" font-size="132" font-weight="900" fill="#f05a84" stroke="#fff" stroke-width="13" paint-order="stroke">ごうか</text>
</svg>
