<svg xmlns="http://www.w3.org/2000/svg" viewBox="0 0 1254 1254">
  <rect width="1254" height="1254" fill="none"/>
  <defs><linearGradient id="g" x1="190" y1="190" x2="1064" y2="1064"><stop stop-color="#ff5f8f"/><stop offset=".35" stop-color="#ffd84c"/><stop offset=".7" stop-color="#5bd6ff"/><stop offset="1" stop-color="#9b6cff"/></linearGradient></defs>
  <circle cx="627" cy="627" r="512" fill="url(#g)" stroke="#161616" stroke-width="24"/>
  <circle cx="627" cy="627" r="442" fill="#fffef7" stroke="#fff" stroke-width="18" stroke-dasharray="30 16"/>
  <path d="M410 520c80-135 354-135 434 0 28 145-72 246-217 246S382 665 410 520z" fill="#fff0c4" stroke="#161616" stroke-width="18"/>
  <path d="M452 430l78-102 40 128M802 430l-78-102-40 128" fill="#f8c36d" stroke="#161616" stroke-width="18" stroke-linejoin="round"/>
  <circle cx="548" cy="548" r="34" fill="#161616"/><circle cx="706" cy="548" r="34" fill="#161616"/>
  <path d="M572 622c40 48 70 48 110 0" fill="none" stroke="#161616" stroke-width="16" stroke-linecap="round"/>
  <path d="M312 368l42 86 95 14-69 67 17 94-85-44-84 44 16-94-68-67 94-14zM942 368l42 86 95 14-69 67 17 94-85-44-84 44 16-94-68-67 94-14z" fill="#fff36d" stroke="#161616" stroke-width="10"/>
  <text x="627" y="880" text-anchor="middle" font-family="sans-serif" font-size="126" font-weight="900" fill="#ff4f91" stroke="#fff" stroke-width="12" paint-order="stroke">スペシャル</text>
</svg>
