<svg xmlns="http://www.w3.org/2000/svg" viewBox="0 0 1254 1254">
  <rect width="1254" height="1254" fill="none"/>
  <circle cx="627" cy="627" r="500" fill="#f1efff" stroke="#7b65d8" stroke-width="22"/>
  <circle cx="627" cy="627" r="435" fill="#ffffff" stroke="#b9adff" stroke-width="16" stroke-dasharray="22 16"/>
  <path d="M418 530c70-124 348-124 418 0 20 134-76 220-209 220s-229-86-209-220z" fill="#fff0c4" stroke="#161616" stroke-width="16"/>
  <path d="M458 445l70-94 38 116M797 445l-70-94-38 116" fill="#f8c36d" stroke="#161616" stroke-width="16" stroke-linejoin="round"/>
  <circle cx="548" cy="550" r="30" fill="#161616"/><circle cx="706" cy="550" r="30" fill="#161616"/>
  <path d="M590 620c25 22 50 22 75 0" fill="none" stroke="#161616" stroke-width="14" stroke-linecap="round"/>
  <path d="M627 292l42 90 98 12-72 67 18 96-86-48-86 48 18-96-72-67 98-12z" fill="#ffd84c" stroke="#161616" stroke-width="12" stroke-linejoin="round"/>
  <text x="627" y="850" text-anchor="middle" font-family="sans-serif" font-size="112" font-weight="900" fill="#6f59d6" stroke="#fff" stroke-width="9" paint-order="stroke">チャレンジ</text>
</svg>
