<svg xmlns="http://www.w3.org/2000/svg" viewBox="0 0 1254 1254">
  <rect width="1254" height="1254" fill="none"/>
  <circle cx="627" cy="627" r="500" fill="#eafbea" stroke="#2fbf6b" stroke-width="22"/>
  <circle cx="627" cy="627" r="430" fill="#ffffff" stroke="#8fe6ae" stroke-width="16"/>
  <path d="M420 520c72-120 342-120 414 0 20 128-70 224-207 224s-227-96-207-224z" fill="#fff0c4" stroke="#161616" stroke-width="16"/>
  <path d="M457 435l70-92 38 115M797 435l-70-92-38 115" fill="#f8c36d" stroke="#161616" stroke-width="16" stroke-linejoin="round"/>
  <circle cx="550" cy="540" r="32" fill="#161616"/><circle cx="705" cy="540" r="32" fill="#161616"/>
  <path d="M570 610c40 44 84 44 124 0" fill="none" stroke="#161616" stroke-width="14" stroke-linecap="round"/>
  <path d="M360 690l70 70 170-190" fill="none" stroke="#2fbf6b" stroke-width="42" stroke-linecap="round" stroke-linejoin="round"/>
  <text x="657" y="850" text-anchor="middle" font-family="sans-serif" font-size="154" font-weight="900" fill="#2fbf6b" stroke="#fff" stroke-width="10" paint-order="stroke">できた</text>
</svg>
