<svg xmlns="http://www.w3.org/2000/svg" viewBox="0 0 1254 1254">
  <rect width="1254" height="1254" fill="none"/>
  <circle cx="627" cy="627" r="500" fill="#fff1f7" stroke="#ef5f99" stroke-width="22"/>
  <circle cx="627" cy="627" r="440" fill="#ffffff" stroke="#ffc3dc" stroke-width="16"/>
  <path d="M420 520c75-120 340-120 415 0 15 130-70 224-207 224S405 650 420 520z" fill="#fff0c4" stroke="#161616" stroke-width="16"/>
  <path d="M459 435l70-92 38 115M794 435l-70-92-38 115" fill="#f8c36d" stroke="#161616" stroke-width="16" stroke-linejoin="round"/>
  <circle cx="550" cy="548" r="32" fill="#161616"/><circle cx="705" cy="548" r="32" fill="#161616"/>
  <path d="M586 610c29 26 55 26 84 0" fill="none" stroke="#161616" stroke-width="14" stroke-linecap="round"/>
  <path d="M318 626c55-80 112-92 152-52-50 18-93 46-125 88zM936 626c-55-80-112-92-152-52 50 18 93 46 125 88z" fill="#ff8dbb"/>
  <text x="627" y="850" text-anchor="middle" font-family="sans-serif" font-size="154" font-weight="900" fill="#ef5f99" stroke="#fff" stroke-width="10" paint-order="stroke">ナイス</text>
</svg>
