<svg xmlns="http://www.w3.org/2000/svg" viewBox="0 0 1254 1254">
  <rect width="1254" height="1254" fill="none"/>
  <circle cx="627" cy="627" r="512" fill="#281f55" stroke="#ffd84c" stroke-width="28"/>
  <circle cx="627" cy="627" r="445" fill="#fff9df" stroke="#ffed8a" stroke-width="20" stroke-dasharray="18 14"/>
  <path d="M405 520c82-138 362-138 444 0 30 150-78 250-222 250S375 670 405 520z" fill="#fff0c4" stroke="#161616" stroke-width="18"/>
  <path d="M450 428l82-110 42 136M804 428l-82-110-42 136" fill="#f8c36d" stroke="#161616" stroke-width="18" stroke-linejoin="round"/>
  <circle cx="548" cy="548" r="34" fill="#161616"/><circle cx="706" cy="548" r="34" fill="#161616"/>
  <path d="M570 622c42 50 72 50 114 0" fill="none" stroke="#161616" stroke-width="16" stroke-linecap="round"/>
  <path d="M492 322l68 82 67-114 67 114 68-82 24 150H468z" fill="#ffd84c" stroke="#161616" stroke-width="14" stroke-linejoin="round"/>
  <circle cx="627" cy="398" r="18" fill="#ff5f8f" stroke="#161616" stroke-width="8"/>
  <text x="627" y="878" text-anchor="middle" font-family="sans-serif" font-size="128" font-weight="900" fill="#ffd84c" stroke="#281f55" stroke-width="12" paint-order="stroke">レジェンド</text>
</svg>
