<svg xmlns="http://www.w3.org/2000/svg" viewBox="0 0 1254 1254">
  <rect width="1254" height="1254" fill="none"/>
  <circle cx="627" cy="627" r="500" fill="#f0fff9" stroke="#1ebc9b" stroke-width="22"/>
  <circle cx="627" cy="627" r="440" fill="#ffffff" stroke="#8ce8d6" stroke-width="16"/>
  <path d="M420 520c70-120 344-120 414 0 20 128-70 224-207 224s-227-96-207-224z" fill="#fff0c4" stroke="#161616" stroke-width="16"/>
  <path d="M457 435l70-92 38 115M797 435l-70-92-38 115" fill="#f8c36d" stroke="#161616" stroke-width="16" stroke-linejoin="round"/>
  <path d="M520 540c32-28 62-28 94 0M640 540c32-28 62-28 94 0" fill="none" stroke="#161616" stroke-width="14" stroke-linecap="round"/>
  <path d="M590 615c24 18 50 18 74 0" fill="none" stroke="#161616" stroke-width="14" stroke-linecap="round"/>
  <circle cx="627" cy="565" r="205" fill="none" stroke="#1ebc9b" stroke-width="12" stroke-dasharray="12 18"/>
  <path d="M627 300v52M627 778v52M386 565h52M816 565h52" stroke="#1ebc9b" stroke-width="18" stroke-linecap="round"/>
  <text x="627" y="850" text-anchor="middle" font-family="sans-serif" font-size="132" font-weight="900" fill="#0fae8d" stroke="#fff" stroke-width="10" paint-order="stroke">しゅうちゅう</text>
</svg>
