<svg xmlns="http://www.w3.org/2000/svg" viewBox="0 0 1254 1254">
  <rect width="1254" height="1254" fill="none"/>
  <circle cx="627" cy="627" r="500" fill="#fff0f2" stroke="#ff7f9f" stroke-width="22"/>
  <circle cx="627" cy="627" r="435" fill="#ffffff" stroke="#ffc3cf" stroke-width="16" stroke-dasharray="24 18"/>
  <path d="M420 520c70-120 344-120 414 0 20 128-70 224-207 224s-227-96-207-224z" fill="#fff0c4" stroke="#161616" stroke-width="16"/>
  <path d="M457 435l70-92 38 115M797 435l-70-92-38 115" fill="#f8c36d" stroke="#161616" stroke-width="16" stroke-linejoin="round"/>
  <circle cx="550" cy="545" r="30" fill="#161616"/><circle cx="705" cy="545" r="30" fill="#161616"/>
  <path d="M575 610c36 42 70 42 106 0" fill="none" stroke="#161616" stroke-width="14" stroke-linecap="round"/>
  <path d="M626 318c48-76 157-28 149 57-8 88-149 161-149 161s-141-73-149-161c-8-85 101-133 149-57z" fill="#ff7f9f" stroke="#161616" stroke-width="12"/>
  <text x="627" y="850" text-anchor="middle" font-family="sans-serif" font-size="132" font-weight="900" fill="#f25f88" stroke="#fff" stroke-width="10" paint-order="stroke">やさしい</text>
</svg>
