<svg xmlns="http://www.w3.org/2000/svg" viewBox="0 0 1254 1254">
  <rect width="1254" height="1254" fill="none"/>
  <circle cx="627" cy="627" r="500" fill="#fff4e6" stroke="#ff8a26" stroke-width="22"/>
  <circle cx="627" cy="627" r="435" fill="#ffffff" stroke="#ffd06d" stroke-width="16" stroke-dasharray="18 14"/>
  <path d="M420 530c65-122 350-122 414 0 22 135-72 220-207 220s-229-85-207-220z" fill="#fff0c4" stroke="#161616" stroke-width="16"/>
  <path d="M456 446l72-94 36 118M798 446l-72-94-36 118" fill="#f8c36d" stroke="#161616" stroke-width="16" stroke-linejoin="round"/>
  <path d="M522 544c28-18 58-18 86 0M648 544c28-18 58-18 86 0" fill="none" stroke="#161616" stroke-width="14" stroke-linecap="round"/>
  <path d="M590 625c24 18 50 18 74 0" fill="none" stroke="#161616" stroke-width="14" stroke-linecap="round"/>
  <path d="M315 480l70 26M939 480l-70 26M330 615h75M924 615h-75" stroke="#ff6c1f" stroke-width="22" stroke-linecap="round"/>
  <text x="627" y="850" text-anchor="middle" font-family="sans-serif" font-size="138" font-weight="900" fill="#ff6c1f" stroke="#fff" stroke-width="10" paint-order="stroke">ファイト</text>
</svg>
